HIERARCHY
ROOT Hips
{
	OFFSET -0.001795 -0.223333 0.028219
	CHANNELS 6 Xposition Yposition Zposition Zrotation Yrotation Xrotation 
	JOINT LeftUpLeg
	{
		OFFSET 0.069520 -0.091406 -0.006815
		CHANNELS 3 Zrotation Yrotation Xrotation
		JOINT LeftLeg
		{
			OFFSET 0.034277 -0.375199 -0.004496
			CHANNELS 3 Zrotation Yrotation Xrotation
			JOINT LeftFoot
			{
				OFFSET -0.013596 -0.397961 -0.043693
				CHANNELS 3 Zrotation Yrotation Xrotation
				JOINT LeftToe
				{
					OFFSET 0.026358 -0.055791 0.119288
					CHANNELS 3 Zrotation Yrotation Xrotation
					End Site
					{
						OFFSET 0.000000 0.000000 0.000000
					}
				}
			}
		}
	}
	JOINT RightUpLeg
	{
		OFFSET -0.067670 -0.090522 -0.004320
		CHANNELS 3 Zrotation Yrotation Xrotation
		JOINT RightLeg
		{
			OFFSET -0.038290 -0.382569 -0.008850
			CHANNELS 3 Zrotation Yrotation Xrotation
			JOINT RightFoot
			{
				OFFSET 0.015774 -0.398415 -0.042312
				CHANNELS 3 Zrotation Yrotation Xrotation
				JOINT RightToe
				{
					OFFSET -0.025372 -0.048144 0.123348
					CHANNELS 3 Zrotation Yrotation Xrotation
					End Site
					{
						OFFSET 0.000000 0.000000 0.000000
					}
				}
			}
		}
	}
	JOINT Spine
	{
		OFFSET -0.002533 0.108963 -0.026696
		CHANNELS 3 Zrotation Yrotation Xrotation
		JOINT Spine1
		{
			OFFSET 0.005487 0.135180 0.001092
			CHANNELS 3 Zrotation Yrotation Xrotation
			JOINT Spine2
			{
				OFFSET 0.001457 0.052922 0.025425
				CHANNELS 3 Zrotation Yrotation Xrotation
				JOINT Neck
				{
					OFFSET -0.002778 0.213870 -0.042857
					CHANNELS 3 Zrotation Yrotation Xrotation
					JOINT Head
					{
						OFFSET 0.005152 0.064970 0.051349
						CHANNELS 3 Zrotation Yrotation Xrotation
						End Site
						{
							OFFSET 0.000000 0.000000 0.000000
						}
					}
				}
				JOINT LeftShoulder
				{
					OFFSET 0.078845 0.121749 -0.034090
					CHANNELS 3 Zrotation Yrotation Xrotation
					JOINT LeftArm
					{
						OFFSET 0.090977 0.030469 -0.008868
						CHANNELS 3 Zrotation Yrotation Xrotation
						JOINT LeftForeArm
						{
							OFFSET 0.259612 -0.012772 -0.027456
							CHANNELS 3 Zrotation Yrotation Xrotation
							JOINT LeftHand
							{
								OFFSET 0.249234 0.008986 -0.001171
								CHANNELS 3 Zrotation Yrotation Xrotation
								End Site
								{
									OFFSET 0.000000 0.000000 0.000000
								}
							}
						}
					}
				}
				JOINT RightShoulder
				{
					OFFSET -0.081759 0.118833 -0.038615
					CHANNELS 3 Zrotation Yrotation Xrotation
					JOINT RightArm
					{
						OFFSET -0.096012 0.032551 -0.009143
						CHANNELS 3 Zrotation Yrotation Xrotation
						JOINT RightForeArm
						{
							OFFSET -0.253742 -0.013329 -0.021401
							CHANNELS 3 Zrotation Yrotation Xrotation
							JOINT RightHand
							{
								OFFSET -0.255298 0.007772 -0.005559
								CHANNELS 3 Zrotation Yrotation Xrotation
								End Site
								{
									OFFSET 0.000000 0.000000 0.000000
								}
							}
						}
					}
				}
			}
		}
	}
}
MOTION
Frames: 16
Frame Time: 0.050000
0.014019 0.953638 -0.021013 -2.417782 -5.030239 2.330566 9.722592 0.020135 5.524805 -5.569270 0.545301 -10.937884 2.995580 9.855047 16.735227 0.000000 0.000000 0.000000 -2.867554 -0.054367 2.326696 0.253116 -0.305980 -8.191974 -0.965544 -9.268459 18.346257 0.000000 0.000000 0.000000 -1.285283 -0.099808 4.158896 4.080559 -0.225952 -26.979347 -4.182743 -1.504504 26.034597 5.831005 -2.499502 -25.679541 0.000000 0.000000 0.000000 -16.139477 8.172222 -4.357655 -33.715047 -20.379512 -0.640694 -151.731304 -62.313397 145.624469 0.000000 0.000000 0.000000 -7.683044 -4.504310 -0.573417 0.001147 21.843085 -1.718041 -58.607881 12.349495 -7.197478 0.000000 0.000000 0.000000 
0.013802 0.953992 -0.020572 -2.442413 -4.868755 1.985329 9.753660 0.024069 5.659233 -5.512684 0.543490 -10.517423 2.908692 9.732342 16.626422 0.000000 0.000000 0.000000 -2.911516 -0.092589 2.866810 0.421409 -0.316269 -8.378806 -0.988468 -9.314392 18.486439 0.000000 0.000000 0.000000 -0.929062 -0.140031 4.797811 3.647340 -0.153686 -26.742461 -4.234444 -1.508399 25.679848 5.737892 -2.476202 -25.271310 0.000000 0.000000 0.000000 -16.904319 8.070391 -4.409781 -32.623646 -18.028022 -1.249038 -149.165226 -62.104351 141.109398 0.000000 0.000000 0.000000 -8.097664 -5.224214 -0.729524 -0.590998 19.612479 -1.534055 -56.912207 9.059515 -5.247909 0.000000 0.000000 0.000000 
0.013642 0.954278 -0.020531 -2.311360 -4.934438 1.885950 9.819753 0.027084 5.750308 -5.870992 0.556372 -10.475782 2.879985 9.708141 16.759843 0.000000 0.000000 0.000000 -3.080102 -0.082612 2.881370 0.474837 -0.313088 -8.242493 -0.962203 -9.276467 18.463812 0.000000 0.000000 0.000000 -1.011241 -0.150872 5.339275 3.451674 -0.114035 -26.760132 -4.328905 -1.779264 25.544155 5.626657 -2.499770 -24.902996 0.000000 0.000000 0.000000 -17.435006 8.881345 -4.858219 -32.228538 -16.361010 -1.661488 -145.914103 -61.598499 135.819631 0.000000 0.000000 0.000000 -8.643499 -5.885122 -0.807481 -0.445206 18.156812 -1.390943 -57.278422 7.470319 -4.581415 0.000000 0.000000 0.000000 
0.013512 0.954799 -0.020829 -2.288094 -4.883665 1.955683 9.782992 0.022250 5.553545 -5.824641 0.554996 -10.326367 2.849027 9.684714 16.869923 0.000000 0.000000 0.000000 -3.266148 -0.066403 2.820477 0.789274 -0.322080 -8.295034 -0.953960 -9.297019 18.640194 0.000000 0.000000 0.000000 -0.989907 -0.165975 5.830864 3.589469 -0.140390 -26.788811 -4.579577 -1.921120 25.135137 5.848329 -2.593310 -25.165046 0.000000 0.000000 0.000000 -18.002585 9.206648 -5.107032 -31.552072 -14.207573 -2.121027 -143.638380 -60.900044 131.572502 0.000000 0.000000 0.000000 -8.437895 -6.355462 -0.947888 -0.627925 17.022963 -1.287756 -59.136176 6.023493 -4.060104 0.000000 0.000000 0.000000 
0.013458 0.954854 -0.021426 -2.120566 -5.205873 1.974087 9.524107 0.044649 5.511033 -5.740615 0.559462 -10.267259 2.998753 9.881511 16.960373 0.000000 0.000000 0.000000 -3.429407 -0.042000 2.660464 0.721856 -0.316376 -8.228429 -0.819317 -9.111698 18.560149 0.000000 0.000000 0.000000 -0.997527 -0.167494 5.955162 3.554824 -0.158828 -26.435587 -4.559333 -1.777702 24.925265 5.813353 -2.580583 -25.084054 0.000000 0.000000 0.000000 -18.034393 9.730067 -5.404059 -31.404866 -13.233171 -2.317402 -142.244534 -60.397548 128.998532 0.000000 0.000000 0.000000 -8.326159 -6.607916 -1.023287 -0.786953 15.949995 -1.190422 -61.280971 5.210298 -3.869179 0.000000 0.000000 0.000000 
0.013466 0.954804 -0.022139 -1.914214 -5.330462 2.151458 9.352975 0.050425 5.401200 -5.861111 0.564100 -10.489212 3.033038 9.940835 17.127144 0.000000 0.000000 0.000000 -3.616692 -0.002454 2.268939 0.643857 -0.308365 -8.030553 -0.809821 -9.086875 18.443727 0.000000 0.000000 0.000000 -1.177038 -0.154093 5.984426 3.772449 -0.216509 -26.264034 -4.689339 -1.621612 24.729977 6.147612 -2.762604 -24.984545 0.000000 0.000000 0.000000 -18.234410 9.801452 -5.496131 -31.039613 -12.522536 -2.442158 -141.009951 -60.599689 127.195916 0.000000 0.000000 0.000000 -8.469844 -6.652506 -1.018590 -1.383054 15.203488 -1.130809 -61.963864 4.025294 -3.266982 0.000000 0.000000 0.000000 
0.013499 0.954684 -0.022845 -1.892589 -5.298833 2.182356 9.304775 0.050699 5.388353 -5.811925 0.560896 -10.622598 3.017851 9.924904 17.148165 0.000000 0.000000 0.000000 -3.563376 0.004064 2.113955 0.514368 -0.301577 -7.892548 -0.849132 -9.130200 18.378541 0.000000 0.000000 0.000000 -1.014842 -0.171385 6.201853 3.835088 -0.220699 -26.390925 -4.771902 -1.332296 24.861912 6.371659 -2.839029 -25.093045 0.000000 0.000000 0.000000 -18.416795 9.941042 -5.656447 -31.104013 -12.500389 -2.449290 -139.980771 -60.538191 125.468319 0.000000 0.000000 0.000000 -8.700028 -6.745764 -1.046260 -2.157269 14.802953 -1.102901 -62.022043 2.574369 -2.401273 0.000000 0.000000 0.000000 
0.013562 0.954380 -0.023448 -1.899604 -5.251174 2.225338 9.189953 0.056068 5.524146 -5.596246 0.550886 -11.027753 2.995065 9.902212 17.183549 0.000000 0.000000 0.000000 -3.447680 0.008162 1.942058 0.326059 -0.292082 -7.726316 -0.907392 -9.188667 18.261930 0.000000 0.000000 0.000000 -0.881316 -0.178960 6.127831 3.894806 -0.257212 -26.049791 -4.832611 -1.221095 24.751610 6.555771 -2.940314 -24.934750 0.000000 0.000000 0.000000 -18.610344 10.032480 -5.767714 -31.275807 -12.342584 -2.477061 -139.655239 -60.753962 125.118262 0.000000 0.000000 0.000000 -9.148257 -6.406786 -0.906055 -2.801215 14.750033 -1.106216 -61.598717 1.070875 -1.506574 0.000000 0.000000 0.000000 
0.013588 0.954210 -0.023998 -1.778137 -4.945306 2.304779 9.165651 0.040821 5.258574 -5.731353 0.549285 -10.910048 2.858298 9.722191 17.112383 0.000000 0.000000 0.000000 -3.524574 0.018377 1.824300 0.268785 -0.290349 -7.669880 -1.087097 -9.423702 18.223925 0.000000 0.000000 0.000000 -0.706617 -0.188133 6.005958 3.792209 -0.228689 -26.089083 -4.938466 -0.976233 24.959568 6.789285 -3.015124 -24.977608 0.000000 0.000000 0.000000 -18.676021 9.702487 -5.670548 -31.499398 -12.673135 -2.407103 -139.449126 -61.117889 124.980015 0.000000 0.000000 0.000000 -9.624394 -6.234494 -0.848106 -3.620917 14.722168 -1.111107 -59.789296 -0.224713 -0.634645 0.000000 0.000000 0.000000 
0.013517 0.954079 -0.024625 -1.783547 -4.571997 2.413270 9.140085 0.022911 4.990912 -5.599098 0.538444 -10.856386 2.712552 9.532334 17.021703 0.000000 0.000000 0.000000 -3.429214 0.019632 1.687379 0.173747 -0.287483 -7.604992 -1.287991 -9.695517 18.234064 0.000000 0.000000 0.000000 -0.479365 -0.199476 5.836381 3.597416 -0.184865 -26.054180 -4.928800 -0.671973 25.146900 7.187232 -3.179587 -24.936986 0.000000 0.000000 0.000000 -18.775535 9.327370 -5.574568 -31.915784 -13.484162 -2.229486 -138.988764 -61.713144 124.696038 0.000000 0.000000 0.000000 -10.324413 -5.949945 -0.752408 -4.052837 14.767964 -1.113399 -57.305645 -1.341252 0.136446 0.000000 0.000000 0.000000 
0.013300 0.953973 -0.025339 -1.728639 -4.186774 2.403153 9.060974 0.013710 4.927750 -5.470830 0.526399 -10.954120 2.529054 9.301466 16.995877 0.000000 0.000000 0.000000 -3.299115 0.008979 1.693060 -0.082426 -0.280561 -7.576373 -1.494654 -9.972455 18.232789 0.000000 0.000000 0.000000 -0.471284 -0.203600 5.922197 3.564987 -0.170638 -26.075110 -4.929227 -0.555444 25.109680 7.244458 -3.202027 -24.637634 0.000000 0.000000 0.000000 -18.850097 8.982159 -5.463616 -32.403229 -14.002393 -2.108796 -139.325636 -62.090354 125.429577 0.000000 0.000000 0.000000 -10.966372 -5.519743 -0.612013 -4.566638 14.613380 -1.093414 -53.908271 -1.735532 0.448324 0.000000 0.000000 0.000000 
0.012972 0.953757 -0.026149 -1.786507 -3.774972 2.346890 9.295360 -0.009167 4.894038 -5.656155 0.521897 -11.015353 2.324822 9.039499 16.931225 0.000000 0.000000 0.000000 -3.152312 -0.010987 1.814589 -0.131276 -0.283375 -7.651219 -1.696363 -10.241339 18.259163 0.000000 0.000000 0.000000 -0.218079 -0.225162 5.995449 3.323943 -0.108373 -26.182099 -4.877981 -0.267663 25.378006 7.365391 -3.202128 -24.668518 0.000000 0.000000 0.000000 -18.942952 8.471237 -5.294293 -32.897049 -14.909275 -1.903006 -139.900706 -62.366276 126.309953 0.000000 0.000000 0.000000 -11.190327 -5.147846 -0.572960 -5.122102 14.200912 -1.035157 -51.295761 -1.886499 0.628288 0.000000 0.000000 0.000000 
0.012471 0.953708 -0.026925 -1.767746 -3.405576 2.329469 9.390590 -0.026135 4.808559 -5.735353 0.515483 -11.054452 2.136586 8.807367 16.934506 0.000000 0.000000 0.000000 -3.143253 -0.009614 1.744520 -0.070996 -0.280661 -7.478774 -1.897715 -10.504759 18.230098 0.000000 0.000000 0.000000 -0.238130 -0.229474 6.126961 3.201039 -0.080111 -26.156717 -4.818278 -0.200416 25.318890 7.378183 -3.171903 -24.610704 0.000000 0.000000 0.000000 -18.921389 8.180971 -5.193041 -33.443386 -15.609320 -1.723713 -141.303527 -62.200781 128.107572 0.000000 0.000000 0.000000 -11.761493 -4.822040 -0.475195 -5.394803 13.868447 -0.986676 -48.732337 -1.295773 0.445884 0.000000 0.000000 0.000000 
0.011765 0.953476 -0.027583 -1.940391 -3.258666 2.206747 9.728995 -0.043642 4.898509 -5.883188 0.514972 -11.077770 2.067101 8.713071 16.866434 0.000000 0.000000 0.000000 -2.970328 -0.032159 1.903403 0.063875 -0.287800 -7.534425 -1.957038 -10.573624 18.213784 0.000000 0.000000 0.000000 -0.189486 -0.233631 6.117690 3.086946 -0.067809 -25.979078 -4.590040 -0.288621 25.525545 7.373411 -3.217593 -24.347062 0.000000 0.000000 0.000000 -19.037201 8.034751 -5.119097 -33.835514 -16.380141 -1.554732 -143.212523 -61.805391 130.625295 0.000000 0.000000 0.000000 -12.243688 -4.634110 -0.392868 -5.618005 13.991396 -1.002723 -47.107790 -0.851307 0.267669 0.000000 0.000000 0.000000 
0.010914 0.953184 -0.028113 -2.054909 -3.040951 1.949831 9.964960 -0.055575 4.934264 -5.931095 0.515484 -10.770996 1.983205 8.579451 16.658800 0.000000 0.000000 0.000000 -2.869252 -0.060003 2.165397 0.236138 -0.292808 -7.483399 -2.062698 -10.692184 18.122324 0.000000 0.000000 0.000000 -0.253549 -0.234455 6.236070 3.041232 -0.062142 -25.895400 -4.459030 -0.269634 25.705871 7.585103 -3.391119 -23.928782 0.000000 0.000000 0.000000 -18.870456 8.068523 -5.141150 -34.330149 -16.804337 -1.452535 -145.096062 -61.115982 132.835378 0.000000 0.000000 0.000000 -12.657307 -4.717299 -0.402758 -5.694499 14.061394 -1.006685 -45.738881 -0.028390 -0.015465 0.000000 0.000000 0.000000 
0.010044 0.952827 -0.028577 -2.244096 -2.931532 1.847535 10.319539 -0.073652 5.148077 -6.066383 0.512494 -11.015214 1.920866 8.500076 16.638792 0.000000 0.000000 0.000000 -2.692755 -0.091316 2.436567 0.408986 -0.308629 -7.767454 -2.088754 -10.719981 18.136105 0.000000 0.000000 0.000000 -0.300052 -0.233220 6.269030 3.109295 -0.082360 -25.800203 -4.253271 -0.273895 25.771430 7.846258 -3.546761 -23.907422 0.000000 0.000000 0.000000 -18.710080 8.208427 -5.207606 -34.827231 -17.259395 -1.334233 -145.992760 -60.732124 133.936285 0.000000 0.000000 0.000000 -13.275861 -4.862226 -0.392788 -5.618120 14.342378 -1.040018 -44.717362 0.426434 -0.151587 0.000000 0.000000 0.000000 
